<mxfile host="app.diagrams.net" modified="2020-09-21T09:07:30.167Z" agent="5.0 (X11; Linux x86_64) AppleWebKit/537.36 (KHTML, like Gecko) Chrome/85.0.4183.102 Safari/537.36" etag="18R6ZUnxXn3LuQZSMF4Q" version="13.7.3" type="github">
  <diagram id="JLbCjbLD2lE0aH4LFFrL" name="Page-1">
    <mxGraphModel dx="868" dy="459" grid="1" gridSize="10" guides="1" tooltips="1" connect="1" arrows="1" fold="1" page="1" pageScale="1" pageWidth="1169" pageHeight="827" math="0" shadow="0">
      <root>
        <mxCell id="0" />
        <mxCell id="1" parent="0" />
        <mxCell id="ShHxwbICEOPARcSMfEoh-1" value="" style="shape=image;html=1;verticalAlign=top;verticalLabelPosition=bottom;labelBackgroundColor=#ffffff;imageAspect=0;aspect=fixed;image=https://cdn3.iconfinder.com/data/icons/popular-services-brands-vol-2/512/raspberry-pi-128.png" vertex="1" parent="1">
          <mxGeometry x="440" y="400" width="120" height="120" as="geometry" />
        </mxCell>
        <mxCell id="ShHxwbICEOPARcSMfEoh-2" value="" style="html=1;verticalLabelPosition=bottom;align=center;labelBackgroundColor=#ffffff;verticalAlign=top;strokeWidth=2;strokeColor=#0080F0;shadow=0;dashed=0;shape=mxgraph.ios7.icons.monitor;" vertex="1" parent="1">
          <mxGeometry x="360" y="160" width="280" height="140" as="geometry" />
        </mxCell>
        <mxCell id="ShHxwbICEOPARcSMfEoh-3" value="" style="shape=image;html=1;verticalAlign=top;verticalLabelPosition=bottom;labelBackgroundColor=#ffffff;imageAspect=0;aspect=fixed;image=https://cdn0.iconfinder.com/data/icons/doodle-audio-video-game/91/Audio_-_Video_-_Game_55-128.png" vertex="1" parent="1">
          <mxGeometry x="720" y="200" width="80" height="80" as="geometry" />
        </mxCell>
        <mxCell id="ShHxwbICEOPARcSMfEoh-5" value="" style="shape=image;html=1;verticalAlign=top;verticalLabelPosition=bottom;labelBackgroundColor=#ffffff;imageAspect=0;aspect=fixed;image=https://cdn0.iconfinder.com/data/icons/doodle-audio-video-game/91/Audio_-_Video_-_Game_55-128.png" vertex="1" parent="1">
          <mxGeometry x="200" y="200" width="80" height="80" as="geometry" />
        </mxCell>
        <mxCell id="ShHxwbICEOPARcSMfEoh-24" value="" style="group" vertex="1" connectable="0" parent="1">
          <mxGeometry x="400" y="80" width="200" height="40" as="geometry" />
        </mxCell>
        <mxCell id="ShHxwbICEOPARcSMfEoh-7" value="" style="rounded=0;whiteSpace=wrap;html=1;strokeWidth=3;" vertex="1" parent="ShHxwbICEOPARcSMfEoh-24">
          <mxGeometry width="200" height="40" as="geometry" />
        </mxCell>
        <mxCell id="ShHxwbICEOPARcSMfEoh-8" value="" style="ellipse;whiteSpace=wrap;html=1;aspect=fixed;strokeWidth=2;" vertex="1" parent="ShHxwbICEOPARcSMfEoh-24">
          <mxGeometry x="5" y="5" width="30" height="30" as="geometry" />
        </mxCell>
        <mxCell id="ShHxwbICEOPARcSMfEoh-14" value="" style="ellipse;whiteSpace=wrap;html=1;aspect=fixed;strokeWidth=2;" vertex="1" parent="ShHxwbICEOPARcSMfEoh-24">
          <mxGeometry x="45" y="5" width="30" height="30" as="geometry" />
        </mxCell>
        <mxCell id="ShHxwbICEOPARcSMfEoh-15" value="" style="ellipse;whiteSpace=wrap;html=1;aspect=fixed;strokeWidth=2;" vertex="1" parent="ShHxwbICEOPARcSMfEoh-24">
          <mxGeometry x="85" y="5" width="30" height="30" as="geometry" />
        </mxCell>
        <mxCell id="ShHxwbICEOPARcSMfEoh-16" value="" style="ellipse;whiteSpace=wrap;html=1;aspect=fixed;strokeWidth=2;" vertex="1" parent="ShHxwbICEOPARcSMfEoh-24">
          <mxGeometry x="125" y="5" width="30" height="30" as="geometry" />
        </mxCell>
        <mxCell id="ShHxwbICEOPARcSMfEoh-17" value="" style="ellipse;whiteSpace=wrap;html=1;aspect=fixed;strokeWidth=2;" vertex="1" parent="ShHxwbICEOPARcSMfEoh-24">
          <mxGeometry x="165" y="5" width="30" height="30" as="geometry" />
        </mxCell>
        <mxCell id="ShHxwbICEOPARcSMfEoh-18" value="" style="ellipse;whiteSpace=wrap;html=1;aspect=fixed;fillColor=#000000;" vertex="1" parent="ShHxwbICEOPARcSMfEoh-24">
          <mxGeometry x="15" y="15" width="10" height="10" as="geometry" />
        </mxCell>
        <mxCell id="ShHxwbICEOPARcSMfEoh-19" value="" style="ellipse;whiteSpace=wrap;html=1;aspect=fixed;fillColor=#000000;" vertex="1" parent="ShHxwbICEOPARcSMfEoh-24">
          <mxGeometry x="55" y="15" width="10" height="10" as="geometry" />
        </mxCell>
        <mxCell id="ShHxwbICEOPARcSMfEoh-20" value="" style="ellipse;whiteSpace=wrap;html=1;aspect=fixed;fillColor=#000000;" vertex="1" parent="ShHxwbICEOPARcSMfEoh-24">
          <mxGeometry x="95" y="15" width="10" height="10" as="geometry" />
        </mxCell>
        <mxCell id="ShHxwbICEOPARcSMfEoh-21" value="" style="ellipse;whiteSpace=wrap;html=1;aspect=fixed;fillColor=#000000;" vertex="1" parent="ShHxwbICEOPARcSMfEoh-24">
          <mxGeometry x="175" y="15" width="10" height="10" as="geometry" />
        </mxCell>
        <mxCell id="ShHxwbICEOPARcSMfEoh-22" value="" style="ellipse;whiteSpace=wrap;html=1;aspect=fixed;fillColor=#000000;" vertex="1" parent="ShHxwbICEOPARcSMfEoh-24">
          <mxGeometry x="135" y="15" width="10" height="10" as="geometry" />
        </mxCell>
      </root>
    </mxGraphModel>
  </diagram>
</mxfile>
